HIERARCHY
ROOT Hips
{
	OFFSET 0.00000 0.00000 0.00000
	CHANNELS 6 Xposition Yposition Zposition Zrotation Yrotation Xrotation 
	JOINT LHipJoint
	{
		OFFSET 0 0 0
		CHANNELS 3 Zrotation Yrotation Xrotation
		JOINT LeftUpLeg
		{
			OFFSET 1.42489 -1.84941 0.69647
			CHANNELS 3 Zrotation Yrotation Xrotation
			JOINT LeftLeg
			{
				OFFSET 2.44443 -6.71602 0.00000
				CHANNELS 3 Zrotation Yrotation Xrotation
				JOINT LeftFoot
				{
					OFFSET 2.62838 -7.22137 0.00000
					CHANNELS 3 Zrotation Yrotation Xrotation
					JOINT LeftToeBase
					{
						OFFSET 0.24036 -0.66037 2.29953
						CHANNELS 3 Zrotation Yrotation Xrotation
						End Site
						{
							OFFSET 0.00000 -0.00000 1.19837
						}
					}
				}
			}
		}
	}
	JOINT RHipJoint
	{
		OFFSET 0 0 0
		CHANNELS 3 Zrotation Yrotation Xrotation
		JOINT RightUpLeg
		{
			OFFSET -1.37055 -1.84941 0.69647
			CHANNELS 3 Zrotation Yrotation Xrotation
			JOINT RightLeg
			{
				OFFSET -2.54834 -7.00152 0.00000
				CHANNELS 3 Zrotation Yrotation Xrotation
				JOINT RightFoot
				{
					OFFSET -2.65692 -7.29983 0.00000
					CHANNELS 3 Zrotation Yrotation Xrotation
					JOINT RightToeBase
					{
						OFFSET -0.18839 -0.51760 2.29390
						CHANNELS 3 Zrotation Yrotation Xrotation
						End Site
						{
							OFFSET -0.00000 -0.00000 1.18261
						}
					}
				}
			}
		}
	}
	JOINT LowerBack
	{
		OFFSET 0 0 0
		CHANNELS 3 Zrotation Yrotation Xrotation
		JOINT Spine
		{
			OFFSET 0.05220 2.15489 0.05011
			CHANNELS 3 Zrotation Yrotation Xrotation
			JOINT Spine1
			{
				OFFSET -0.07653 2.14219 -0.05668
				CHANNELS 3 Zrotation Yrotation Xrotation
				JOINT Neck
				{
					OFFSET 0 0 0
					CHANNELS 3 Zrotation Yrotation Xrotation
					JOINT Neck1
					{
						OFFSET 0.01370 1.58638 0.01447
						CHANNELS 3 Zrotation Yrotation Xrotation
						JOINT Head
						{
							OFFSET 0.23548 1.54190 -0.21747
							CHANNELS 3 Zrotation Yrotation Xrotation
							End Site
							{
								OFFSET 0.07132 1.59823 -0.08163
							}
						}
					}
				}
				JOINT LeftShoulder
				{
					OFFSET 0 0 0
					CHANNELS 3 Zrotation Yrotation Xrotation
					JOINT LeftArm
					{
						OFFSET 3.47056 1.45357 -0.58896
						CHANNELS 3 Zrotation Yrotation Xrotation
						JOINT LeftForeArm
						{
							OFFSET 5.19069 -0.00000 0.00000
							CHANNELS 3 Zrotation Yrotation Xrotation
							JOINT LeftHand
							{
								OFFSET 3.30016 -0.00000 0.00000
								CHANNELS 3 Zrotation Yrotation Xrotation
								JOINT LeftFingerBase
								{
									OFFSET 0 0 0
									CHANNELS 3 Zrotation Yrotation Xrotation
									JOINT LeftHandIndex1
									{
										OFFSET 0.70770 -0.00000 0.00000
										CHANNELS 3 Zrotation Yrotation Xrotation
										End Site
										{
											OFFSET 0.57056 -0.00000 0.00000
										}
									}
								}
								JOINT LThumb
								{
									OFFSET 0 0 0
									CHANNELS 3 Zrotation Yrotation Xrotation
									End Site
									{
										OFFSET 0.57928 -0.00000 0.57928
									}
								}
							}
						}
					}
				}
				JOINT RightShoulder
				{
					OFFSET 0 0 0
					CHANNELS 3 Zrotation Yrotation Xrotation
					JOINT RightArm
					{
						OFFSET -2.89018 2.03305 -0.26731
						CHANNELS 3 Zrotation Yrotation Xrotation
						JOINT RightForeArm
						{
							OFFSET -5.23924 -0.00000 0.00000
							CHANNELS 3 Zrotation Yrotation Xrotation
							JOINT RightHand
							{
								OFFSET -3.32953 -0.00000 0.00000
								CHANNELS 3 Zrotation Yrotation Xrotation
								JOINT RightFingerBase
								{
									OFFSET 0 0 0
									CHANNELS 3 Zrotation Yrotation Xrotation
									JOINT RightHandIndex1
									{
										OFFSET -0.60741 -0.00000 0.00000
										CHANNELS 3 Zrotation Yrotation Xrotation
										End Site
										{
											OFFSET -0.48971 -0.00000 0.00000
										}
									}
								}
								JOINT RThumb
								{
									OFFSET 0 0 0
									CHANNELS 3 Zrotation Yrotation Xrotation
									End Site
									{
										OFFSET -0.49719 -0.00000 0.49719
									}
								}
							}
						}
					}
				}
			}
		}
	}
}
MOTION
Frames: 5
Frame Time: .0083333
6.8830 15.2370 1.1271 2.4382 -36.4705 14.9313 0.0000 0.0000 0.0000 -24.1815 1.4235 -20.8108 14.1141 19.1483 72.5527 0.0678 -14.7175 -11.0846 1.9879 -8.8409 -25.2990 0.0000 0.0000 0.0000 9.6666 27.5924 -62.8849 -12.8578 -18.7302 68.6832 -1.1032 -8.7657 -24.8219 -0.2060 -2.9222 8.0623 3.1874 -4.2241 15.0131 -3.6548 -5.5330 14.4032 -5.1704 -2.4666 6.4599 1.8117 1.3158 3.5722 2.1039 1.9436 -3.9368 0.3005 0.8887 -1.8350 0.0000 -0.0000 0.0000 -53.6790 -57.0375 29.3928 53.2854 -54.2376 -28.8195 -0.0000 0.0000 -66.7138 36.8937 14.0322 10.3154 -7.1250 0.0000 -0.0000 9.0903 47.1271 0.4810 0.0000 -0.0000 0.0000 75.7420 4.8132 48.0000 -66.4670 57.8004 -39.7704 0.0000 -0.0000 -0.0358 -24.6209 -11.5110 5.2253 7.1250 -0.0000 -0.0000 2.2925 -42.5953 0.1361
6.8343 15.2483 1.1534 2.2803 -36.0439 14.9069 0.0000 0.0000 0.0000 -23.3061 1.0092 -22.5083 15.2362 19.4470 75.9471 0.0790 -14.6327 -11.1504 2.0440 -8.9571 -25.6612 0.0000 0.0000 0.0000 10.0390 27.5365 -62.4340 -12.8543 -18.7289 68.6723 -1.1244 -9.0181 -25.1835 -0.2169 -2.9984 8.2743 3.2526 -4.2733 15.2391 -3.5861 -5.5816 14.3787 -5.1076 -2.4929 6.3083 1.9198 1.2511 3.1164 2.2354 1.8363 -3.2626 0.3307 0.8436 -1.5370 0.0000 -0.0000 0.0000 -53.4744 -57.2777 29.4583 53.0959 -54.1703 -28.6658 -0.0000 0.0000 -66.7105 36.8483 14.0374 10.3024 -7.1250 0.0000 -0.0000 9.0456 47.1258 0.4783 0.0000 -0.0000 0.0000 75.7670 4.7606 47.9798 -66.4956 57.8060 -39.7945 0.0000 -0.0000 -0.0637 -24.6377 -11.5069 5.2275 7.1250 -0.0000 -0.0000 2.2768 -42.5927 0.1353
6.7861 15.2582 1.1766 2.1035 -35.6049 14.8535 0.0000 0.0000 0.0000 -22.3603 0.6030 -24.3322 16.4383 19.6931 79.5350 0.0953 -14.6725 -11.3516 2.1144 -9.1004 -26.1098 0.0000 0.0000 0.0000 10.4563 27.4638 -61.9526 -12.8516 -18.7279 68.6638 -1.1451 -9.2657 -25.5364 -0.2281 -3.0740 8.4849 3.3251 -4.3145 15.4954 -3.5173 -5.6185 14.3708 -5.0490 -2.5126 6.1609 2.0221 1.1788 2.6649 2.3827 1.7148 -2.5544 0.3660 0.7929 -1.2333 0.0000 0.0000 0.0000 -53.2485 -57.5698 29.5157 52.9094 -54.1036 -28.5147 -0.0000 0.0000 -66.6956 36.7737 14.0937 10.3146 -7.1250 0.0000 -0.0000 8.9735 47.1809 0.4867 0.0000 0.0000 0.0000 75.7853 4.7284 47.9562 -66.5416 57.8150 -39.8334 0.0000 -0.0000 -0.0858 -24.6681 -11.5043 5.2336 7.1250 -0.0000 -0.0000 2.2491 -42.5929 0.1337
6.7386 15.2668 1.1970 1.9024 -35.1585 14.7651 0.0000 0.0000 0.0000 -21.3378 0.2135 -26.2638 17.7039 19.8731 83.2731 0.1108 -14.8318 -11.6168 2.1956 -9.2621 -26.6185 0.0000 0.0000 0.0000 10.9272 27.3771 -61.4287 -12.8498 -18.7272 68.6583 -1.1654 -9.5092 -25.8824 -0.2393 -3.1484 8.6923 3.4094 -4.3461 15.7909 -3.4472 -5.6411 14.3816 -4.9956 -2.5243 6.0159 2.1135 1.0985 2.2401 2.5439 1.5795 -1.8386 0.4064 0.7365 -0.9362 -0.0000 0.0000 0.0000 -53.0054 -57.9141 29.5633 52.7251 -54.0372 -28.3655 -0.0000 0.0000 -66.6749 36.7181 14.1158 10.3096 -7.1250 0.0000 -0.0000 8.9191 47.1982 0.4875 -0.0000 0.0000 0.0000 75.7926 4.7143 47.9249 -66.6061 57.8276 -39.8880 0.0000 -0.0000 -0.1011 -24.7064 -11.5057 5.2434 7.1250 -0.0000 -0.0000 2.2148 -42.5987 0.1313
6.6917 15.2738 1.2151 1.6801 -34.7106 14.6328 0.0000 0.0000 0.0000 -20.2413 -0.1429 -28.2845 19.0131 19.9766 87.1135 0.1218 -15.0914 -11.8938 2.2786 -9.4238 -27.1302 0.0000 0.0000 0.0000 11.4522 27.2744 -60.8551 -12.8499 -18.7273 68.6588 -1.1856 -9.7473 -26.2218 -0.2500 -3.2170 8.8836 3.5032 -4.3685 16.1296 -3.3761 -5.6499 14.4160 -4.9466 -2.5283 5.8769 2.1872 1.0117 1.8635 2.7149 1.4341 -1.1507 0.4513 0.6757 -0.6600 0.0000 -0.0000 0.0000 -52.7527 -58.3060 29.5961 52.5478 -53.9728 -28.2220 -0.0000 0.0000 -66.6449 36.6923 14.0911 10.2829 -7.1250 0.0000 -0.0000 8.8931 47.1641 0.4785 0.0000 -0.0000 0.0000 75.7894 4.7283 47.8846 -66.6800 57.8420 -39.9506 0.0000 -0.0000 -0.1092 -24.7537 -11.5148 5.2588 7.1250 -0.0000 -0.0000 2.1733 -42.6137 0.1280
